#include "resource.h"
const unsigned char chocoboMidi[2897]={ 
0x4d,0x54,0x68,0x64,
0x00,0x00,0x00,0x06,
0x00,0x01,
0x00,0x02,
0x01,0xe0,

0x4d,0x54,0x72,0x6b,
0x00,0x00,0x00,0x42,
0x00,0xff,0x51,0x03,0x0c,0x0b,0xe1,
0x00,0xff,0x03,0x06,0xc2,0xbd,0xd0,0xd0,0xc4,0xf1,
0x00,0xff,0x58,0x04,0x04,0x02,0x0c,0x0b,
0x00,0xff,0x06,0x21,0x42,0x61,0x73,0x73,0xd3,0xc3,0x6c,0x6f,0x77,0xd2,
                    0xf4,0xb7,0xfb,0xa3,0xac,0x4c,0x65,0x61,0x64,0xd3,
                    0xc3,0x48,0x69,0x67,0x68,0xd2,0xf4,0xb7,0xfb,0xb1,
                    0xea,0xbc,0xc7,
0x00,0xff,0x2f,0x00,

0x4d,0x54,0x72,0x6b,
0x00,0x00,0x0a,0xf1,
0x00,0xff,0x03,0x06,0xd2,0xf4,0xb9,0xec,0x20,0x31,
0x00,0xb1,0x64,0x00,
0x00,0x65,0x00,
0x00,0x06,0x0c,
0x00,0xe1,0x00,0x40,
0x00,0xb1,0x65,0x00,
0x00,0x64,0x01,
0x00,0x06,0x40,
0x00,0x26,0x00,
0x00,0x65,0x7f,
0x00,0x64,0x7f,
0x00,0xb0,0x64,0x00,
0x00,0x65,0x00,0x00,0x06,0x0c,
0x00,0xe0,0x00,0x40,
0x00,0xb0,0x65,0x00,
0x00,0x64,0x01,0x00,0x06,0x40,0x00,0x26,0x00,
0x00,0x65,0x7f,
0x00,0x64,0x7f,
0x00,0xb1,0x65,0x00,
0x00,0x64,0x02,
0x00,0x06,0x40,
0x00,0x65,0x7f,
0x00,0x64,0x7f,
0x00,0xb0,0x65,0x00,
0x00,0x64,0x02,
0x00,0x06,0x40,
0x00,0x65,0x7f,
0x00,0x64,0x7f,
0x00,0xc1,0x30,
0x00,0xc0,0x30,
0x00,0xb1,0x00,0x00,
0x00,0xb0,0x00,0x00,
0x00,0xb1,0x07,0x68,
0x00,0xb0,0x07,0x68,
0x00,0xb1,0x0a,0x40,
0x00,0xb0,0x0a,0x40,
0x00,0xb1,0x5d,0x00,
0x00,0xb0,0x5d,0x00,
0x00,0xb1,0x5b,0x00,
0x00,0xb0,0x5b,0x00,
0x00,0xb1,0x5c,0x00,
0x00,0xb0,0x5c,0x00,
0x00,0xb1,0x5f,0x00,
0x00,0xb0,0x5f,0x00,

0x8f,0x00,0x90,0x2b,0x5f,
0x78,0x80,0x2b,0x50,
0x78,0x90,0x32,0x5f,
0x78,0x80,0x32,0x50,
0x00,0x90,0x2b,0x5f,
0x78,0x80,0x2b,0x50,
0x00,0x90,0x29,0x5f,
0x78,0x80,0x29,0x50,
0x00,0x90,0x30,0x5f,
0x78,0x80,0x30,0x50,
0x78,0x90,0x30,0x5f,
0x78,0x80,0x30,0x50,
0x00,0x90,0x2b,0x5f,
0x78,0x80,0x2b,0x50,
0x00,0x90,0x32,0x5f,
0x78,0x80,0x32,0x50,
0x00,0x90,0x2b,0x5f,
0x78,0x80,0x2b,0x50,
0x00,0x90,0x32,0x5f,
0x78,0x80,0x32,0x50,
0x00,0x90,0x29,0x5f,
0x78,0x80,0x29,0x50,
0x78,0x90,0x30,0x5f,
0x78,0x80,0x30,0x50,
0x00,0x90,0x29,0x5f,
0x78,0x80,0x29,0x50,0x00,0x90,0x3e,0x5f,0x00,0x2b,0x5f,0x78,0x80,0x3e,0x50,0x00,0x2b,
0x50,0x78,0x90,0x3b,0x5f,0x00,0x32,0x5f,0x78,0x80,0x3b,0x50,0x00,0x90,0x37,0x4c,
0x00,0x80,0x32,0x50,0x78,0x37,0x50,0x00,0x90,0x34,0x5f,0x00,0x29,0x5f,0x78,0x80,
0x34,0x50,0x00,0x90,0x3e,0x5f,0x00,0x80,0x29,0x50,0x78,0x3e,0x50,0x00,0x90,0x3b,
0x5f,0x00,0x30,0x5f,0x78,0x80,0x3b,0x50,0x00,0x90,0x37,0x4c,0x00,0x80,0x30,0x50,
0x78,0x37,0x50,0x00,0x90,0x3b,0x5f,0x00,0x2b,0x5f,0x78,0x80,0x3b,0x50,0x00,0x2b,
0x50,0x78,0x90,0x37,0x5f,0x00,0x32,0x5f,0x78,0x80,0x37,0x50,0x00,0x32,0x50,0x78,
0x90,0x3b,0x5f,0x00,0x29,0x5f,0x78,0x80,0x29,0x50,0x78,0x90,0x30,0x5f,0x78,0x80,
0x3b,0x50,0x00,0x90,0x39,0x5f,0x00,0x80,0x30,0x50,0x78,0x39,0x50,0x00,0x90,0x37,
0x5f,0x00,0x2b,0x5f,0x78,0x80,0x37,0x50,0x00,0x90,0x37,0x5f,0x00,0x80,0x2b,0x50,
0x3c,0x37,0x50,0x00,0x90,0x39,0x4c,0x3c,0x80,0x39,0x50,0x00,0x90,0x37,0x5f,0x00,
0x32,0x5f,0x78,0x80,0x37,0x50,0x00,0x90,0x35,0x5f,0x00,0x80,0x32,0x50,0x78,0x35,
0x50,0x00,0x90,0x37,0x5f,0x00,0x29,0x5f,0x78,0x80,0x29,0x50,0x78,0x90,0x30,0x5f,
0x78,0x80,0x37,0x50,0x00,0x90,0x35,0x5f,0x00,0x80,0x30,0x50,0x78,0x35,0x50,0x00,
0x90,0x37,0x5f,0x00,0x2b,0x5f,0x78,0x80,0x37,0x50,0x00,0x90,0x37,0x5f,0x00,0x80,
0x2b,0x50,0x3c,0x37,0x50,0x00,0x90,0x3c,0x5f,0x3c,0x80,0x3c,0x50,0x00,0x90,0x3e,
0x4c,0x00,0x32,0x5f,0x78,0x80,0x3e,0x50,0x00,0x90,0x40,0x5f,0x00,0x80,0x32,0x50,
0x78,0x40,0x50,0x00,0x90,0x41,0x5f,0x00,0x29,0x5f,0x78,0x80,0x29,0x50,0x78,0x90,
0x30,0x5f,0x78,0x80,0x30,0x50,0x78,0x41,0x50,0x00,0x90,0x3e,0x5f,0x00,0x2b,0x5f,
0x78,0x80,0x3e,0x50,0x00,0x2b,0x50,0x78,0x90,0x3b,0x5f,0x00,0x32,0x5f,0x78,0x80,
0x3b,0x50,0x00,0x90,0x37,0x4c,0x00,0x80,0x32,0x50,0x78,0x37,0x50,0x00,0x90,0x34,
0x5f,0x00,0x29,0x5f,0x78,0x80,0x34,0x50,0x00,0x90,0x3e,0x5f,0x00,0x80,0x29,0x50,
0x78,0x3e,0x50,0x00,0x90,0x3b,0x5f,0x00,0x30,0x5f,0x78,0x80,0x3b,0x50,0x00,0x90,
0x37,0x4c,0x00,0x80,0x30,0x50,0x78,0x37,0x50,0x00,0x90,0x3b,0x5f,0x00,0x2b,0x5f,
0x78,0x80,0x3b,0x50,0x00,0x2b,0x50,0x78,0x90,0x37,0x5f,0x00,0x32,0x5f,0x78,0x80,
0x37,0x50,0x00,0x32,0x50,0x78,0x90,0x3b,0x5f,0x00,0x29,0x5f,0x78,0x80,0x29,0x50,
0x78,0x90,0x30,0x5f,0x78,0x80,0x3b,0x50,0x00,0x90,0x39,0x5f,0x00,0x80,0x30,0x50,
0x78,0x39,0x50,0x00,0x90,0x37,0x5f,0x00,0x2b,0x5f,0x78,0x80,0x37,0x50,0x00,0x90,
0x37,0x5f,0x00,0x80,0x2b,0x50,0x3c,0x37,0x50,0x00,0x90,0x39,0x4c,0x3c,0x80,0x39,
0x50,0x00,0x90,0x37,0x5f,0x00,0x32,0x5f,0x78,0x80,0x37,0x50,0x00,0x90,0x35,0x5f,
0x00,0x80,0x32,0x50,0x78,0x35,0x50,0x00,0x90,0x37,0x5f,0x00,0x29,0x5f,0x78,0x80,
0x29,0x50,0x78,0x90,0x30,0x5f,0x78,0x80,0x37,0x50,0x00,0x90,0x35,0x5f,0x00,0x80,
0x30,0x50,0x78,0x35,0x50,0x00,0x90,0x37,0x5f,0x00,0x2b,0x5f,0x78,0x80,0x37,0x50,
0x00,0x90,0x37,0x5f,0x00,0x80,0x2b,0x50,0x3c,0x37,0x50,0x00,0x90,0x3c,0x5f,0x3c,
0x80,0x3c,0x50,0x00,0x90,0x3e,0x4c,0x00,0x32,0x5f,0x78,0x80,0x3e,0x50,0x00,0x90,
0x40,0x5f,0x00,0x80,0x32,0x50,0x78,0x40,0x50,0x00,0x90,0x41,0x5f,0x00,0x29,0x5f,
0x78,0x80,0x29,0x50,0x78,0x90,0x30,0x5f,0x78,0x80,0x30,0x50,0x78,0x41,0x50,0x00,
0x90,0x40,0x5f,0x00,0x30,0x5f,0x78,0x80,0x40,0x50,0x00,0x30,0x50,0x78,0x90,0x3c,
0x5f,0x00,0x34,0x5f,0x78,0x80,0x3c,0x50,0x00,0x90,0x39,0x5f,0x00,0x80,0x34,0x50,
0x78,0x39,0x50,0x00,0x90,0x36,0x5f,0x00,0x2d,0x5f,0x78,0x80,0x36,0x50,0x00,0x90,
0x39,0x5f,0x00,0x80,0x2d,0x50,0x78,0x39,0x50,0x00,0x90,0x3c,0x5f,0x00,0x32,0x5f,
0x78,0x80,0x3c,0x50,0x00,0x90,0x40,0x5f,0x00,0x80,0x32,0x50,0x78,0x40,0x50,0x00,
0x90,0x3e,0x5f,0x00,0x2b,0x5f,0x78,0x80,0x3e,0x50,0x00,0x2b,0x50,0x78,0x90,0x43,
0x5f,0x00,0x32,0x5f,0x78,0x80,0x43,0x50,0x00,0x32,0x50,0x78,0x90,0x3e,0x5f,0x00,
0x2b,0x5f,0x81,0x70,0x80,0x2b,0x50,0x00,0x90,0x26,0x5f,0x78,0x80,0x3e,0x50,0x00,
0x90,0x3b,0x5f,0x78,0x80,0x3b,0x50,0x00,0x26,0x50,0x00,0x90,0x3c,0x5f,0x00,0x30,
0x5f,0x78,0x80,0x3c,0x50,0x78,0x90,0x39,0x5f,0x00,0x80,0x30,0x50,0x78,0x39,0x50,
0x00,0x90,0x36,0x5f,0x78,0x80,0x36,0x50,0x00,0x90,0x32,0x5f,0x00,0x26,0x5f,0x78,
0x80,0x32,0x50,0x00,0x90,0x36,0x5f,0x00,0x80,0x26,0x50,0x78,0x36,0x50,0x00,0x90,
0x39,0x5f,0x00,0x2d,0x5f,0x78,0x80,0x39,0x50,0x00,0x90,0x3c,0x5f,0x00,0x80,0x2d,
0x50,0x78,0x3c,0x50,0x00,0x90,0x3b,0x5f,0x00,0x2b,0x5f,0x78,0x80,0x3b,0x50,0x00,
0x90,0x3b,0x5f,0x00,0x80,0x2b,0x50,0x3c,0x3b,0x50,0x00,0x90,0x3c,0x4c,0x3c,0x80,
0x3c,0x50,0x00,0x90,0x3b,0x5f,0x00,0x32,0x5f,0x78,0x80,0x3b,0x50,0x00,0x90,0x39,
0x5f,0x00,0x80,0x32,0x50,0x78,0x39,0x50,0x00,0x90,0x3b,0x5f,0x00,0x28,0x5f,0x81,
0x70,0x80,0x28,0x50,0x00,0x90,0x2f,0x5f,0x81,0x70,0x80,0x3b,0x50,0x00,0x2f,0x50,
0x00,0x90,0x40,0x5f,0x00,0x30,0x5f,0x78,0x80,0x40,0x50,0x00,0x30,0x50,0x78,0x90,
0x3c,0x5f,0x00,0x34,0x5f,0x78,0x80,0x3c,0x50,0x00,0x90,0x39,0x5f,0x00,0x80,0x34,
0x50,0x78,0x39,0x50,0x00,0x90,0x36,0x5f,0x00,0x2d,0x5f,0x78,0x80,0x36,0x50,0x00,
0x90,0x39,0x5f,0x00,0x80,0x2d,0x50,0x78,0x39,0x50,0x00,0x90,0x3c,0x5f,0x00,0x32,
0x5f,0x78,0x80,0x3c,0x50,0x00,0x90,0x40,0x5f,0x00,0x80,0x32,0x50,0x78,0x40,0x50,
0x00,0x90,0x3e,0x5f,0x00,0x2b,0x5f,0x78,0x80,0x3e,0x50,0x00,0x2b,0x50,0x78,0x90,
0x43,0x5f,0x00,0x32,0x5f,0x78,0x80,0x43,0x50,0x00,0x32,0x50,0x78,0x90,0x3e,0x5f,
0x00,0x2b,0x5f,0x81,0x70,0x80,0x2b,0x50,0x00,0x90,0x26,0x5f,0x78,0x80,0x3e,0x50,
0x00,0x90,0x3b,0x5f,0x78,0x80,0x3b,0x50,0x00,0x26,0x50,0x00,0x90,0x39,0x5f,0x00,
0x29,0x5f,0x78,0x80,0x39,0x50,0x00,0x90,0x39,0x5f,0x3c,0x80,0x39,0x50,0x00,0x90,
0x3b,0x5f,0x3c,0x80,0x3b,0x50,0x00,0x90,0x39,0x5f,0x78,0x80,0x39,0x50,0x00,0x90,
0x37,0x5f,0x78,0x80,0x37,0x50,0x00,0x90,0x39,0x5f,0x00,0x80,0x29,0x50,0x78,0x39,
0x50,0x81,0x70,0x90,0x37,0x5f,0x78,0x80,0x37,0x50,0x00,0x90,0x39,0x5f,0x00,0x29,
0x5f,0x78,0x80,0x39,0x50,0x00,0x90,0x39,0x5f,0x3c,0x80,0x39,0x50,0x00,0x90,0x3b,
0x5f,0x3c,0x80,0x3b,0x50,0x00,0x90,0x3c,0x5f,0x78,0x80,0x3c,0x50,0x00,0x90,0x3e,
0x5f,0x78,0x80,0x3e,0x50,0x00,0x90,0x40,0x5f,0x00,0x80,0x29,0x50,0x78,0x40,0x50,
0x78,0x90,0x42,0x5f,0x00,0x32,0x5f,0x78,0x80,0x42,0x50,0x00,0x32,0x50,0x78,0x90,
0x43,0x5f,0x00,0x2b,0x5f,0x78,0x80,0x2b,0x50,0x78,0x90,0x32,0x5f,0x78,0x80,0x32,
0x50,0x00,0x90,0x2b,0x5f,0x78,0x80,0x2b,0x50,0x00,0x90,0x29,0x5f,0x78,0x80,0x29,
0x50,0x00,0x90,0x30,0x5f,0x78,0x80,0x30,0x50,0x78,0x90,0x30,0x5f,0x78,0x80,0x30,
0x50,0x00,0x90,0x2b,0x5f,0x78,0x80,0x2b,0x50,0x00,0x90,0x32,0x5f,0x78,0x80,0x32,
0x50,0x00,0x90,0x2b,0x5f,0x78,0x80,0x2b,0x50,0x00,0x90,0x32,0x5f,0x78,0x80,0x32,
0x50,0x00,0x90,0x29,0x5f,0x78,0x80,0x29,0x50,0x78,0x90,0x30,0x5f,0x78,0x80,0x30,
0x50,0x00,0x90,0x29,0x5f,0x78,0x80,0x43,0x50,0x00,0x29,0x50,0x00,0x90,0x3e,0x5f,
0x00,0x2b,0x5f,0x78,0x80,0x3e,0x50,0x00,0x2b,0x50,0x78,0x90,0x3b,0x5f,0x00,0x32,
0x5f,0x78,0x80,0x3b,0x50,0x00,0x90,0x37,0x4c,0x00,0x80,0x32,0x50,0x78,0x37,0x50,
0x00,0x90,0x34,0x5f,0x00,0x29,0x5f,0x78,0x80,0x34,0x50,0x00,0x90,0x3e,0x5f,0x00,
0x80,0x29,0x50,0x78,0x3e,0x50,0x00,0x90,0x3b,0x5f,0x00,0x30,0x5f,0x78,0x80,0x3b,
0x50,0x00,0x90,0x37,0x4c,0x00,0x80,0x30,0x50,0x78,0x37,0x50,0x00,0x90,0x3b,0x5f,
0x00,0x2b,0x5f,0x78,0x80,0x3b,0x50,0x00,0x2b,0x50,0x78,0x90,0x37,0x5f,0x00,0x32,
0x5f,0x78,0x80,0x37,0x50,0x00,0x32,0x50,0x78,0x90,0x3b,0x5f,0x00,0x29,0x5f,0x78,
0x80,0x29,0x50,0x78,0x90,0x30,0x5f,0x78,0x80,0x3b,0x50,0x00,0x90,0x39,0x5f,0x00,
0x80,0x30,0x50,0x78,0x39,0x50,0x00,0x90,0x37,0x5f,0x00,0x2b,0x5f,0x78,0x80,0x37,
0x50,0x00,0x90,0x37,0x5f,0x00,0x80,0x2b,0x50,0x3c,0x37,0x50,0x00,0x90,0x39,0x4c,
0x3c,0x80,0x39,0x50,0x00,0x90,0x37,0x5f,0x00,0x32,0x5f,0x78,0x80,0x37,0x50,0x00,
0x90,0x35,0x5f,0x00,0x80,0x32,0x50,0x78,0x35,0x50,0x00,0x90,0x37,0x5f,0x00,0x29,
0x5f,0x78,0x80,0x29,0x50,0x78,0x90,0x30,0x5f,0x78,0x80,0x37,0x50,0x00,0x90,0x35,
0x5f,0x00,0x80,0x30,0x50,0x78,0x35,0x50,0x00,0x90,0x37,0x5f,0x00,0x2b,0x5f,0x78,
0x80,0x37,0x50,0x00,0x90,0x37,0x5f,0x00,0x80,0x2b,0x50,0x3c,0x37,0x50,0x00,0x90,
0x3c,0x5f,0x3c,0x80,0x3c,0x50,0x00,0x90,0x3e,0x4c,0x00,0x32,0x5f,0x78,0x80,0x3e,
0x50,0x00,0x90,0x40,0x5f,0x00,0x80,0x32,0x50,0x78,0x40,0x50,0x00,0x90,0x41,0x5f,
0x00,0x29,0x5f,0x78,0x80,0x29,0x50,0x78,0x90,0x30,0x5f,0x78,0x80,0x30,0x50,0x78,
0x41,0x50,0x00,0x90,0x3e,0x5f,0x00,0x2b,0x5f,0x78,0x80,0x3e,0x50,0x00,0x2b,0x50,
0x78,0x90,0x3b,0x5f,0x00,0x32,0x5f,0x78,0x80,0x3b,0x50,0x00,0x90,0x37,0x4c,0x00,
0x80,0x32,0x50,0x78,0x37,0x50,0x00,0x90,0x34,0x5f,0x00,0x29,0x5f,0x78,0x80,0x34,
0x50,0x00,0x90,0x3e,0x5f,0x00,0x80,0x29,0x50,0x78,0x3e,0x50,0x00,0x90,0x3b,0x5f,
0x00,0x30,0x5f,0x78,0x80,0x3b,0x50,0x00,0x90,0x37,0x4c,0x00,0x80,0x30,0x50,0x78,
0x37,0x50,0x00,0x90,0x3b,0x5f,0x00,0x2b,0x5f,0x78,0x80,0x3b,0x50,0x00,0x2b,0x50,
0x78,0x90,0x37,0x5f,0x00,0x32,0x5f,0x78,0x80,0x37,0x50,0x00,0x32,0x50,0x78,0x90,
0x3b,0x5f,0x00,0x29,0x5f,0x78,0x80,0x29,0x50,0x78,0x90,0x30,0x5f,0x78,0x80,0x3b,
0x50,0x00,0x90,0x39,0x5f,0x00,0x80,0x30,0x50,0x78,0x39,0x50,0x00,0x90,0x37,0x5f,
0x00,0x2b,0x5f,0x78,0x80,0x37,0x50,0x00,0x90,0x37,0x5f,0x00,0x80,0x2b,0x50,0x3c,
0x37,0x50,0x00,0x90,0x39,0x4c,0x3c,0x80,0x39,0x50,0x00,0x90,0x37,0x5f,0x00,0x32,
0x5f,0x78,0x80,0x37,0x50,0x00,0x90,0x35,0x5f,0x00,0x80,0x32,0x50,0x78,0x35,0x50,
0x00,0x90,0x37,0x5f,0x00,0x29,0x5f,0x78,0x80,0x29,0x50,0x78,0x90,0x30,0x5f,0x78,
0x80,0x37,0x50,0x00,0x90,0x35,0x5f,0x00,0x80,0x30,0x50,0x78,0x35,0x50,0x00,0x90,
0x37,0x5f,0x00,0x2b,0x5f,0x78,0x80,0x37,0x50,0x00,0x90,0x37,0x5f,0x00,0x80,0x2b,
0x50,0x3c,0x37,0x50,0x00,0x90,0x3c,0x5f,0x3c,0x80,0x3c,0x50,0x00,0x90,0x3e,0x4c,
0x00,0x32,0x5f,0x78,0x80,0x3e,0x50,0x00,0x90,0x40,0x5f,0x00,0x80,0x32,0x50,0x78,
0x40,0x50,0x00,0x90,0x41,0x5f,0x00,0x29,0x5f,0x78,0x80,0x29,0x50,0x78,0x90,0x30,
0x5f,0x78,0x80,0x30,0x50,0x78,0x41,0x50,0x00,0x90,0x40,0x5f,0x00,0x30,0x5f,0x78,
0x80,0x40,0x50,0x00,0x30,0x50,0x78,0x90,0x3c,0x5f,0x00,0x34,0x5f,0x78,0x80,0x3c,
0x50,0x00,0x90,0x39,0x5f,0x00,0x80,0x34,0x50,0x78,0x39,0x50,0x00,0x90,0x36,0x5f,
0x00,0x2d,0x5f,0x78,0x80,0x36,0x50,0x00,0x90,0x39,0x5f,0x00,0x80,0x2d,0x50,0x78,
0x39,0x50,0x00,0x90,0x3c,0x5f,0x00,0x32,0x5f,0x78,0x80,0x3c,0x50,0x00,0x90,0x40,
0x5f,0x00,0x80,0x32,0x50,0x78,0x40,0x50,0x00,0x90,0x3e,0x5f,0x00,0x2b,0x5f,0x78,
0x80,0x3e,0x50,0x00,0x2b,0x50,0x78,0x90,0x43,0x5f,0x00,0x32,0x5f,0x78,0x80,0x43,
0x50,0x00,0x32,0x50,0x78,0x90,0x3e,0x5f,0x00,0x2b,0x5f,0x81,0x70,0x80,0x2b,0x50,
0x00,0x90,0x26,0x5f,0x78,0x80,0x3e,0x50,0x00,0x90,0x3b,0x5f,0x78,0x80,0x3b,0x50,
0x00,0x26,0x50,0x00,0x90,0x3c,0x5f,0x00,0x30,0x5f,0x78,0x80,0x3c,0x50,0x78,0x90,
0x39,0x5f,0x00,0x80,0x30,0x50,0x78,0x39,0x50,0x00,0x90,0x36,0x5f,0x78,0x80,0x36,
0x50,0x00,0x90,0x32,0x5f,0x00,0x26,0x5f,0x78,0x80,0x32,0x50,0x00,0x90,0x36,0x5f,
0x00,0x80,0x26,0x50,0x78,0x36,0x50,0x00,0x90,0x39,0x5f,0x00,0x2d,0x5f,0x78,0x80,
0x39,0x50,0x00,0x90,0x3c,0x5f,0x00,0x80,0x2d,0x50,0x78,0x3c,0x50,0x00,0x90,0x3b,
0x5f,0x00,0x2b,0x5f,0x78,0x80,0x3b,0x50,0x00,0x90,0x3b,0x5f,0x00,0x80,0x2b,0x50,
0x3c,0x3b,0x50,0x00,0x90,0x3c,0x4c,0x3c,0x80,0x3c,0x50,0x00,0x90,0x3b,0x5f,0x00,
0x32,0x5f,0x78,0x80,0x3b,0x50,0x00,0x90,0x39,0x5f,0x00,0x80,0x32,0x50,0x78,0x39,
0x50,0x00,0x90,0x3b,0x5f,0x00,0x28,0x5f,0x81,0x70,0x80,0x28,0x50,0x00,0x90,0x2f,
0x5f,0x81,0x70,0x80,0x3b,0x50,0x00,0x2f,0x50,0x00,0x90,0x40,0x5f,0x00,0x30,0x5f,
0x78,0x80,0x40,0x50,0x00,0x30,0x50,0x78,0x90,0x3c,0x5f,0x00,0x34,0x5f,0x78,0x80,
0x3c,0x50,0x00,0x90,0x39,0x5f,0x00,0x80,0x34,0x50,0x78,0x39,0x50,0x00,0x90,0x36,
0x5f,0x00,0x2d,0x5f,0x78,0x80,0x36,0x50,0x00,0x90,0x39,0x5f,0x00,0x80,0x2d,0x50,
0x78,0x39,0x50,0x00,0x90,0x3c,0x5f,0x00,0x32,0x5f,0x78,0x80,0x3c,0x50,0x00,0x90,
0x40,0x5f,0x00,0x80,0x32,0x50,0x78,0x40,0x50,0x00,0x90,0x3e,0x5f,0x00,0x2b,0x5f,
0x78,0x80,0x3e,0x50,0x00,0x2b,0x50,0x78,0x90,0x43,0x5f,0x00,0x32,0x5f,0x78,0x80,
0x43,0x50,0x00,0x32,0x50,0x78,0x90,0x3e,0x5f,0x00,0x2b,0x5f,0x81,0x70,0x80,0x2b,
0x50,0x00,0x90,0x26,0x5f,0x78,0x80,0x3e,0x50,0x00,0x90,0x3b,0x5f,0x78,0x80,0x3b,
0x50,0x00,0x26,0x50,0x00,0x90,0x39,0x5f,0x00,0x29,0x5f,0x78,0x80,0x39,0x50,0x00,
0x90,0x39,0x5f,0x3c,0x80,0x39,0x50,0x00,0x90,0x3b,0x5f,0x3c,0x80,0x3b,0x50,0x00,
0x90,0x39,0x5f,0x78,0x80,0x39,0x50,0x00,0x90,0x37,0x5f,0x78,0x80,0x37,0x50,0x00,
0x90,0x39,0x5f,0x00,0x80,0x29,0x50,0x78,0x39,0x50,0x81,0x70,0x90,0x37,0x5f,0x78,
0x80,0x37,0x50,0x00,0x90,0x39,0x5f,0x00,0x29,0x5f,0x78,0x80,0x39,0x50,0x00,0x90,
0x39,0x5f,0x3c,0x80,0x39,0x50,0x00,0x90,0x3b,0x5f,0x3c,0x80,0x3b,0x50,0x00,0x90,
0x3c,0x5f,0x78,0x80,0x3c,0x50,0x00,0x90,0x3e,0x5f,0x78,0x80,0x3e,0x50,0x00,0x90,
0x40,0x5f,0x00,0x80,0x29,0x50,0x78,0x40,0x50,0x78,0x90,0x42,0x5f,0x00,0x32,0x5f,
0x78,0x80,0x42,0x50,0x00,0x32,0x50,0x78,0x90,0x43,0x5f,0x00,0x2b,0x5f,0x78,0x80,
0x2b,0x50,0x78,0x90,0x32,0x5f,0x78,0x80,0x32,0x50,0x00,0x90,0x2b,0x5f,0x78,0x80,
0x2b,0x50,0x00,0x90,0x29,0x5f,0x78,0x80,0x29,0x50,0x00,0x90,0x30,0x5f,0x78,0x80,
0x30,0x50,0x78,0x90,0x30,0x5f,0x78,0x80,0x30,0x50,0x00,0x90,0x2b,0x5f,0x78,0x80,
0x2b,0x50,0x00,0x90,0x32,0x5f,0x78,0x80,0x32,0x50,0x00,0x90,0x2b,0x5f,0x78,0x80,
0x2b,0x50,0x00,0x90,0x32,0x5f,0x78,0x80,0x32,0x50,0x00,0x90,0x29,0x5f,0x78,0x80,
0x29,0x50,0x78,0x90,0x30,0x5f,0x78,0x80,0x30,0x50,0x00,0x90,0x29,0x5f,0x78,0x80,
0x43,0x50,0x00,0x29,0x50,0x00,0x90,0x2b,0x5f,0x78,0x80,0x2b,0x50,
0x00,0xff,0x2f,0x00,
};
