const unsigned char midiMusic[6757]={ 
0x4d,0x54,0x68,0x64,0x00,0x00,0x00,0x06,0x00,0x01,0x00,0x03,0x01,0xe0,0x4d,0x54,
0x72,0x6b,0x00,0x00,0x01,0x4a,0x00,0xff,0x03,0x06,0xbb,0xb6,0xc0,0xd6,0xcb,0xcc,
0x00,0xff,0x58,0x04,0x04,0x02,0x18,0x08,0x00,0xff,0x51,0x03,0x08,0x07,0xeb,0x86,
0xaa,0x00,0xff,0x51,0x03,0x07,0xd3,0x34,0x8c,0x60,0xff,0x51,0x03,0x07,0x71,0x7c,
0x73,0xff,0x51,0x03,0x07,0x81,0x1b,0x57,0xff,0x51,0x03,0x07,0x62,0x1e,0x09,0xff,
0x51,0x03,0x07,0x71,0x7c,0x3a,0xff,0x51,0x03,0x07,0xe4,0x79,0x09,0xff,0x51,0x03,
0x07,0xd3,0x34,0x0a,0xff,0x51,0x03,0x07,0xc2,0x3a,0x26,0xff,0x51,0x03,0x07,0xb1,
0x89,0x0a,0xff,0x51,0x03,0x07,0xd3,0x34,0x0a,0xff,0x51,0x03,0x07,0xb1,0x89,0x09,
0xff,0x51,0x03,0x07,0xa1,0x20,0x1d,0xff,0x51,0x03,0x07,0xb1,0x89,0x1d,0xff,0x51,
0x03,0x07,0xc2,0x3a,0x1d,0xff,0x51,0x03,0x07,0x81,0x1b,0x83,0x26,0xff,0x51,0x03,
0x07,0x90,0xfb,0x43,0xff,0x51,0x03,0x07,0xa1,0x20,0x0a,0xff,0x51,0x03,0x07,0x90,
0xfb,0x13,0xff,0x51,0x03,0x07,0x81,0x1b,0x6a,0xff,0x51,0x03,0x07,0x90,0xfb,0x81,
0x23,0xff,0x51,0x03,0x07,0xa1,0x20,0x43,0xff,0x51,0x03,0x07,0xd3,0x34,0x60,0xff,
0x51,0x03,0x07,0xf6,0x0b,0x30,0xff,0x51,0x03,0x08,0x07,0xeb,0x56,0xff,0x51,0x03,
0x08,0x1a,0x1d,0x74,0xff,0x51,0x03,0x08,0x2c,0xa2,0x13,0xff,0x51,0x03,0x08,0x3f,
0x7c,0x1d,0xff,0x51,0x03,0x08,0x52,0xae,0x81,0x06,0xff,0x51,0x03,0x08,0x66,0x3a,
0x4d,0xff,0x51,0x03,0x08,0x7a,0x23,0x81,0x19,0xff,0x51,0x03,0x08,0xa3,0x15,0x44,
0xff,0x51,0x03,0x08,0xb8,0x24,0x56,0xff,0x51,0x03,0x08,0xcd,0x9b,0x7d,0xff,0x51,
0x03,0x08,0xe3,0x7c,0x26,0xff,0x51,0x03,0x09,0x10,0x8b,0x6a,0xff,0x51,0x03,0x09,
0x27,0xc0,0x7d,0xff,0x51,0x03,0x09,0x70,0x3c,0x26,0xff,0x51,0x03,0x09,0xf3,0x8d,
0x26,0xff,0x51,0x03,0x0a,0x85,0xf7,0x27,0xff,0x51,0x03,0x0b,0x2a,0x3b,0x26,0xff,
0x51,0x03,0x0b,0xe3,0xd4,0x13,0xff,0x51,0x03,0x0c,0x0b,0xe1,0x00,0xff,0x2f,0x00,
0x4d,0x54,0x72,0x6b,0x00,0x00,0x0e,0x3f,0x00,0xff,0x03,0x05,0x50,0x69,0x61,0x6e,
0x6f,0x00,0xff,0x04,0x15,0x41,0x52,0x49,0x41,0x20,0x50,0x6c,0x61,0x79,0x65,0x72,
0x20,0x28,0x4d,0x75,0x6c,0x74,0x69,0x29,0x20,0x31,0x00,0xff,0x59,0x02,0x02,0x00,
0x00,0xb0,0x00,0x00,0x00,0xb0,0x20,0x05,0x00,0xc0,0x00,0x00,0xb0,0x0a,0x40,0x00,
0x90,0x3e,0x3c,0x00,0x90,0x42,0x3c,0x83,0x30,0x80,0x3e,0x40,0x00,0x80,0x42,0x40,
0x30,0x90,0x3e,0x3c,0x00,0x90,0x42,0x3c,0x83,0x30,0x80,0x3e,0x40,0x00,0x80,0x42,
0x40,0x30,0x90,0x40,0x3c,0x00,0x90,0x43,0x3c,0x83,0x60,0x80,0x40,0x40,0x00,0x80,
0x43,0x40,0x00,0x90,0x42,0x3c,0x00,0x90,0x45,0x3c,0x83,0x30,0x80,0x42,0x40,0x00,
0x80,0x45,0x40,0x30,0x90,0x42,0x3c,0x00,0x90,0x45,0x3c,0x83,0x60,0x80,0x42,0x40,
0x00,0x80,0x45,0x40,0x00,0x90,0x40,0x3c,0x00,0x90,0x43,0x3c,0x83,0x60,0x80,0x40,
0x40,0x00,0x80,0x43,0x40,0x00,0x90,0x3e,0x3c,0x00,0x90,0x42,0x3c,0x83,0x60,0x80,
0x3e,0x40,0x00,0x80,0x42,0x40,0x00,0x90,0x3d,0x3c,0x00,0x90,0x40,0x3c,0x83,0x30,
0x80,0x3d,0x40,0x00,0x80,0x40,0x40,0x30,0x90,0x39,0x3c,0x00,0x90,0x3e,0x3c,0x83,
0x30,0x80,0x39,0x40,0x00,0x80,0x3e,0x40,0x30,0x90,0x39,0x3c,0x00,0x90,0x3e,0x3c,
0x83,0x30,0x80,0x39,0x40,0x00,0x80,0x3e,0x40,0x30,0x90,0x39,0x3c,0x00,0x90,0x40,
0x3c,0x83,0x30,0x80,0x39,0x40,0x00,0x80,0x40,0x40,0x30,0x90,0x39,0x3c,0x00,0x90,
0x42,0x3c,0x83,0x30,0x80,0x39,0x40,0x00,0x80,0x42,0x40,0x30,0x90,0x39,0x3c,0x00,
0x90,0x42,0x3c,0x85,0x08,0x80,0x42,0x40,0x48,0x90,0x40,0x3c,0x81,0x58,0x80,0x40,
0x40,0x18,0x90,0x40,0x3c,0x86,0x00,0x80,0x39,0x40,0x60,0x80,0x40,0x40,0x60,0x90,
0x3e,0x3c,0x00,0x90,0x42,0x3c,0x83,0x30,0x80,0x3e,0x40,0x00,0x80,0x42,0x40,0x30,
0x90,0x42,0x3c,0x83,0x30,0x80,0x42,0x40,0x30,0x90,0x3e,0x3c,0x00,0x90,0x43,0x3c,
0x83,0x30,0x80,0x3e,0x40,0x00,0x80,0x43,0x40,0x30,0x90,0x45,0x3c,0x83,0x30,0x80,
0x45,0x40,0x30,0x90,0x3e,0x3c,0x00,0x90,0x45,0x3c,0x83,0x60,0x80,0x45,0x40,0x00,
0x90,0x43,0x3c,0x83,0x60,0x80,0x43,0x40,0x00,0x90,0x42,0x3c,0x83,0x60,0x80,0x42,
0x40,0x00,0x90,0x40,0x3c,0x82,0x20,0x80,0x3e,0x40,0x81,0x10,0x80,0x40,0x40,0x30,
0x90,0x3e,0x3c,0x83,0x30,0x80,0x3e,0x40,0x30,0x90,0x39,0x3c,0x00,0x90,0x3e,0x3c,
0x83,0x30,0x80,0x39,0x40,0x00,0x80,0x3e,0x40,0x30,0x90,0x39,0x3c,0x00,0x90,0x40,
0x3c,0x83,0x30,0x80,0x39,0x40,0x00,0x80,0x40,0x40,0x30,0x90,0x39,0x3c,0x00,0x90,
0x42,0x3c,0x83,0x30,0x80,0x39,0x40,0x00,0x80,0x42,0x40,0x30,0x90,0x39,0x3c,0x00,
0x90,0x40,0x3c,0x85,0x08,0x80,0x39,0x40,0x00,0x80,0x40,0x40,0x48,0x90,0x39,0x3c,
0x00,0x90,0x3e,0x3c,0x81,0x58,0x80,0x39,0x40,0x00,0x80,0x3e,0x40,0x18,0x90,0x39,
0x3c,0x00,0x90,0x3e,0x3c,0x86,0x60,0x80,0x39,0x40,0x00,0x80,0x3e,0x40,0x60,0x90,
0x40,0x3c,0x83,0x30,0x80,0x40,0x40,0x30,0x90,0x40,0x3c,0x83,0x30,0x80,0x40,0x40,
0x30,0x90,0x42,0x3c,0x83,0x60,0x80,0x42,0x40,0x00,0x90,0x3e,0x3c,0x83,0x30,0x80,
0x3e,0x40,0x30,0x90,0x40,0x3c,0x83,0x60,0x80,0x40,0x40,0x00,0x90,0x42,0x3c,0x81,
0x70,0x80,0x42,0x40,0x00,0x90,0x43,0x3c,0x81,0x70,0x80,0x43,0x40,0x00,0x90,0x42,
0x3c,0x83,0x60,0x80,0x42,0x40,0x00,0x90,0x3e,0x3c,0x83,0x30,0x80,0x3e,0x40,0x30,
0x90,0x40,0x3c,0x83,0x60,0x80,0x40,0x40,0x00,0x90,0x42,0x3c,0x81,0x70,0x80,0x42,
0x40,0x00,0x90,0x43,0x3c,0x81,0x58,0x80,0x43,0x40,0x18,0x90,0x42,0x3c,0x83,0x60,
0x80,0x42,0x40,0x00,0x90,0x40,0x3c,0x83,0x30,0x80,0x40,0x40,0x30,0x90,0x3e,0x3c,
0x83,0x60,0x80,0x3e,0x40,0x00,0x90,0x40,0x3c,0x83,0x30,0x80,0x40,0x40,0x84,0x10,
0x90,0x42,0x46,0x87,0x10,0x80,0x42,0x40,0x30,0x90,0x3e,0x3c,0x00,0x90,0x42,0x3c,
0x83,0x60,0x80,0x42,0x40,0x00,0x90,0x43,0x3c,0x83,0x60,0x80,0x43,0x40,0x00,0x90,
0x45,0x3c,0x82,0x50,0x80,0x3e,0x40,0x60,0x80,0x45,0x40,0x30,0x90,0x3e,0x3c,0x00,
0x90,0x45,0x3c,0x83,0x60,0x80,0x45,0x40,0x00,0x90,0x43,0x3c,0x83,0x60,0x80,0x43,
0x40,0x00,0x90,0x42,0x3c,0x83,0x30,0x80,0x42,0x40,0x30,0x90,0x43,0x3c,0x81,0x70,
0x80,0x43,0x40,0x00,0x90,0x40,0x3c,0x30,0x80,0x3e,0x40,0x81,0x28,0x80,0x40,0x40,
0x18,0x90,0x3e,0x3c,0x83,0x30,0x80,0x3e,0x40,0x30,0x90,0x39,0x3c,0x00,0x90,0x3e,
0x3c,0x83,0x30,0x80,0x39,0x40,0x00,0x80,0x3e,0x40,0x30,0x90,0x39,0x3c,0x00,0x90,
0x40,0x3c,0x83,0x30,0x80,0x39,0x40,0x00,0x80,0x40,0x40,0x30,0x90,0x39,0x3c,0x00,
0x90,0x42,0x3c,0x83,0x30,0x80,0x39,0x40,0x00,0x80,0x42,0x40,0x30,0x90,0x39,0x3c,
0x00,0x90,0x40,0x3c,0x85,0x08,0x80,0x39,0x40,0x00,0x80,0x40,0x40,0x48,0x90,0x39,
0x3c,0x00,0x90,0x3e,0x3c,0x81,0x58,0x80,0x39,0x40,0x00,0x80,0x3e,0x40,0x18,0x90,
0x39,0x3c,0x00,0x90,0x3e,0x3c,0x81,0x58,0x80,0x39,0x40,0x00,0x80,0x3e,0x40,0x18,
0x90,0x45,0x3c,0x81,0x58,0x80,0x45,0x40,0x18,0x90,0x43,0x3c,0x81,0x58,0x80,0x43,
0x40,0x18,0x90,0x42,0x3c,0x81,0x58,0x80,0x42,0x40,0x18,0x90,0x40,0x3c,0x83,0x30,
0x80,0x40,0x40,0x30,0x90,0x40,0x3c,0x83,0x30,0x80,0x40,0x40,0x30,0x90,0x42,0x3c,
0x83,0x60,0x80,0x42,0x40,0x00,0x90,0x3e,0x3c,0x83,0x30,0x80,0x3e,0x40,0x30,0x90,
0x40,0x3c,0x83,0x60,0x80,0x40,0x40,0x00,0x90,0x42,0x3c,0x81,0x70,0x80,0x42,0x40,
0x00,0x90,0x43,0x3c,0x81,0x70,0x80,0x43,0x40,0x00,0x90,0x42,0x3c,0x83,0x60,0x80,
0x42,0x40,0x00,0x90,0x3e,0x3c,0x83,0x30,0x80,0x3e,0x40,0x30,0x90,0x40,0x3c,0x83,
0x60,0x80,0x40,0x40,0x00,0x90,0x42,0x3c,0x81,0x70,0x80,0x42,0x40,0x00,0x90,0x43,
0x3c,0x81,0x58,0x80,0x43,0x40,0x18,0x90,0x42,0x3c,0x83,0x60,0x80,0x42,0x40,0x00,
0x90,0x40,0x3c,0x83,0x30,0x80,0x40,0x40,0x30,0x90,0x3e,0x3c,0x83,0x60,0x80,0x3e,
0x40,0x00,0x90,0x40,0x3c,0x83,0x30,0x80,0x40,0x40,0x84,0x10,0x90,0x42,0x46,0x87,
0x10,0x80,0x42,0x40,0x30,0x90,0x3e,0x3c,0x00,0x90,0x42,0x3c,0x83,0x60,0x80,0x42,
0x40,0x00,0x90,0x43,0x3c,0x83,0x60,0x80,0x43,0x40,0x00,0x90,0x45,0x3c,0x82,0x50,
0x80,0x3e,0x40,0x60,0x80,0x45,0x40,0x30,0x90,0x3e,0x3c,0x00,0x90,0x45,0x3c,0x83,
0x60,0x80,0x45,0x40,0x00,0x90,0x43,0x3c,0x83,0x60,0x80,0x43,0x40,0x00,0x90,0x42,
0x3c,0x83,0x30,0x80,0x42,0x40,0x30,0x90,0x43,0x3c,0x81,0x70,0x80,0x43,0x40,0x00,
0x90,0x40,0x3c,0x30,0x80,0x3e,0x40,0x81,0x28,0x80,0x40,0x40,0x18,0x90,0x3e,0x3c,
0x83,0x30,0x80,0x3e,0x40,0x30,0x90,0x39,0x3c,0x00,0x90,0x3e,0x3c,0x83,0x30,0x80,
0x39,0x40,0x00,0x80,0x3e,0x40,0x30,0x90,0x39,0x3c,0x00,0x90,0x40,0x3c,0x83,0x30,
0x80,0x39,0x40,0x00,0x80,0x40,0x40,0x30,0x90,0x39,0x3c,0x00,0x90,0x42,0x3c,0x83,
0x30,0x80,0x39,0x40,0x00,0x80,0x42,0x40,0x30,0x90,0x39,0x3c,0x00,0x90,0x40,0x3c,
0x85,0x08,0x80,0x39,0x40,0x00,0x80,0x40,0x40,0x48,0x90,0x39,0x32,0x00,0x90,0x3e,
0x32,0x81,0x58,0x80,0x39,0x40,0x00,0x80,0x3e,0x40,0x18,0x90,0x39,0x32,0x00,0x90,
0x3e,0x32,0x83,0x30,0x80,0x39,0x40,0x00,0x80,0x3e,0x40,0x30,0x90,0x42,0x41,0x00,
0x90,0x45,0x41,0x81,0x70,0x80,0x42,0x40,0x00,0x80,0x45,0x40,0x81,0x70,0x90,0x40,
0x50,0x00,0x90,0x43,0x50,0x85,0x08,0x80,0x40,0x40,0x00,0x80,0x43,0x40,0x48,0x90,
0x3e,0x50,0x00,0x90,0x42,0x50,0x81,0x58,0x80,0x3e,0x40,0x00,0x80,0x42,0x40,0x18,
0x90,0x3e,0x50,0x00,0x90,0x42,0x50,0x83,0x30,0x80,0x3e,0x40,0x00,0x80,0x42,0x40,
0x30,0x90,0x4a,0x5f,0x00,0x90,0x47,0x5f,0x81,0x70,0x80,0x4a,0x40,0x00,0x80,0x47,
0x40,0x81,0x70,0x90,0x48,0x50,0x00,0x90,0x45,0x50,0x85,0x08,0x80,0x48,0x40,0x00,
0x80,0x45,0x40,0x48,0x90,0x43,0x50,0x00,0x90,0x47,0x50,0x81,0x58,0x80,0x43,0x40,
0x00,0x80,0x47,0x40,0x18,0x90,0x43,0x50,0x00,0x90,0x47,0x50,0x83,0x30,0x80,0x43,
0x40,0x00,0x80,0x47,0x40,0x30,0x90,0x43,0x50,0x81,0x70,0x80,0x43,0x40,0x00,0x90,
0x40,0x50,0x81,0x58,0x80,0x40,0x40,0x18,0x90,0x3e,0x50,0x81,0x70,0x80,0x3e,0x40,
0x00,0x90,0x3d,0x50,0x81,0x70,0x80,0x3d,0x40,0x00,0x90,0x40,0x50,0x81,0x70,0x80,
0x40,0x40,0x00,0x90,0x3d,0x50,0x81,0x58,0x80,0x3d,0x40,0x18,0x90,0x3b,0x50,0x81,
0x70,0x80,0x3b,0x40,0x00,0x90,0x39,0x50,0x81,0x70,0x80,0x39,0x40,0x00,0x90,0x3b,
0x50,0x81,0x70,0x80,0x3b,0x40,0x00,0x90,0x3d,0x50,0x81,0x58,0x80,0x3d,0x40,0x18,
0x90,0x3e,0x50,0x81,0x70,0x80,0x3e,0x40,0x00,0x90,0x42,0x50,0x81,0x70,0x80,0x42,
0x40,0x00,0x90,0x40,0x50,0x81,0x70,0x80,0x40,0x40,0x00,0x90,0x3d,0x50,0x81,0x58,
0x80,0x3d,0x40,0x18,0x90,0x3e,0x44,0x81,0x70,0x80,0x3e,0x40,0x00,0x90,0x45,0x51,
0x81,0x70,0x80,0x45,0x40,0x00,0x90,0x4a,0x5e,0x81,0x70,0x80,0x4a,0x40,0x00,0x90,
0x4c,0x6b,0x81,0x58,0x80,0x4c,0x40,0x18,0x90,0x4e,0x64,0x00,0x90,0x4a,0x64,0x00,
0x90,0x45,0x64,0x83,0x30,0x80,0x4e,0x40,0x00,0x80,0x4a,0x40,0x00,0x80,0x45,0x40,
0x30,0x90,0x4e,0x64,0x00,0x90,0x4a,0x64,0x00,0x90,0x45,0x64,0x83,0x30,0x80,0x4e,
0x40,0x00,0x80,0x4a,0x40,0x00,0x80,0x45,0x40,0x30,0x90,0x4f,0x64,0x00,0x90,0x4c,
0x64,0x00,0x90,0x45,0x64,0x83,0x30,0x80,0x4f,0x40,0x00,0x80,0x4c,0x40,0x00,0x80,
0x45,0x40,0x30,0x90,0x51,0x64,0x00,0x90,0x4e,0x64,0x00,0x90,0x45,0x64,0x83,0x30,
0x80,0x51,0x40,0x00,0x80,0x4e,0x40,0x00,0x80,0x45,0x40,0x30,0x90,0x51,0x64,0x00,
0x90,0x4e,0x64,0x00,0x90,0x45,0x64,0x83,0x30,0x80,0x51,0x40,0x00,0x80,0x4e,0x40,
0x00,0x80,0x45,0x40,0x30,0x90,0x4f,0x64,0x00,0x90,0x4c,0x64,0x00,0x90,0x45,0x64,
0x83,0x30,0x80,0x4f,0x40,0x00,0x80,0x4c,0x40,0x00,0x80,0x45,0x40,0x30,0x90,0x4e,
0x64,0x00,0x90,0x4a,0x64,0x00,0x90,0x45,0x64,0x83,0x30,0x80,0x4e,0x40,0x00,0x80,
0x4a,0x40,0x00,0x80,0x45,0x40,0x30,0x90,0x4c,0x64,0x00,0x90,0x49,0x64,0x00,0x90,
0x45,0x64,0x83,0x30,0x80,0x4c,0x40,0x00,0x80,0x49,0x40,0x00,0x80,0x45,0x40,0x30,
0x90,0x4a,0x64,0x00,0x90,0x45,0x64,0x83,0x30,0x80,0x4a,0x40,0x00,0x80,0x45,0x40,
0x30,0x90,0x4a,0x64,0x00,0x90,0x45,0x64,0x83,0x30,0x80,0x4a,0x40,0x00,0x80,0x45,
0x40,0x30,0x90,0x4c,0x64,0x00,0x90,0x49,0x64,0x00,0x90,0x45,0x64,0x83,0x30,0x80,
0x4c,0x40,0x00,0x80,0x49,0x40,0x00,0x80,0x45,0x40,0x30,0x90,0x4e,0x64,0x00,0x90,
0x4a,0x64,0x00,0x90,0x45,0x64,0x83,0x30,0x80,0x4e,0x40,0x00,0x80,0x4a,0x40,0x00,
0x80,0x45,0x40,0x30,0x90,0x4e,0x64,0x00,0x90,0x4a,0x64,0x00,0x90,0x45,0x64,0x85,
0x08,0x80,0x4e,0x40,0x00,0x80,0x4a,0x40,0x00,0x80,0x45,0x40,0x48,0x90,0x4c,0x64,
0x00,0x90,0x49,0x64,0x00,0x90,0x43,0x64,0x81,0x58,0x80,0x4c,0x40,0x00,0x80,0x49,
0x40,0x00,0x80,0x43,0x40,0x18,0x90,0x4c,0x64,0x00,0x90,0x49,0x64,0x00,0x90,0x43,
0x64,0x86,0x60,0x80,0x4c,0x40,0x00,0x80,0x49,0x40,0x00,0x80,0x43,0x40,0x60,0x90,
0x4e,0x64,0x00,0x90,0x4a,0x64,0x83,0x30,0x80,0x4e,0x40,0x00,0x80,0x4a,0x40,0x30,
0x90,0x4e,0x64,0x00,0x90,0x4a,0x64,0x83,0x30,0x80,0x4e,0x40,0x00,0x80,0x4a,0x40,
0x30,0x90,0x4f,0x64,0x00,0x90,0x4a,0x64,0x83,0x30,0x80,0x4f,0x40,0x00,0x80,0x4a,
0x40,0x30,0x90,0x51,0x64,0x00,0x90,0x4a,0x64,0x83,0x30,0x80,0x51,0x40,0x00,0x80,
0x4a,0x40,0x30,0x90,0x51,0x64,0x00,0x90,0x4a,0x64,0x83,0x30,0x80,0x51,0x40,0x00,
0x80,0x4a,0x40,0x30,0x90,0x4f,0x64,0x00,0x90,0x4a,0x64,0x83,0x30,0x80,0x4f,0x40,
0x00,0x80,0x4a,0x40,0x30,0x90,0x4e,0x64,0x00,0x90,0x4a,0x64,0x83,0x60,0x80,0x4e,
0x40,0x00,0x80,0x4a,0x40,0x00,0x90,0x4c,0x64,0x83,0x30,0x80,0x4c,0x40,0x30,0x90,
0x4a,0x64,0x00,0x90,0x42,0x64,0x83,0x30,0x80,0x4a,0x40,0x00,0x80,0x42,0x40,0x30,
0x90,0x4a,0x64,0x00,0x90,0x42,0x64,0x83,0x30,0x80,0x4a,0x40,0x00,0x80,0x42,0x40,
0x30,0x90,0x4c,0x64,0x00,0x90,0x49,0x64,0x00,0x90,0x43,0x64,0x83,0x30,0x80,0x4c,
0x40,0x00,0x80,0x49,0x40,0x00,0x80,0x43,0x40,0x30,0x90,0x4e,0x64,0x00,0x90,0x4a,
0x64,0x00,0x90,0x45,0x64,0x83,0x30,0x80,0x4e,0x40,0x00,0x80,0x4a,0x40,0x00,0x80,
0x45,0x40,0x30,0x90,0x4c,0x64,0x00,0x90,0x49,0x64,0x00,0x90,0x43,0x64,0x85,0x08,
0x80,0x4c,0x40,0x00,0x80,0x49,0x40,0x00,0x80,0x43,0x40,0x48,0x90,0x42,0x64,0x00,
0x90,0x45,0x64,0x00,0x90,0x4a,0x64,0x81,0x58,0x80,0x42,0x40,0x00,0x80,0x45,0x40,
0x00,0x80,0x4a,0x40,0x18,0x90,0x42,0x64,0x00,0x90,0x45,0x64,0x00,0x90,0x4a,0x64,
0x86,0x60,0x80,0x42,0x40,0x00,0x80,0x45,0x40,0x00,0x80,0x4a,0x40,0x60,0x90,0x45,
0x50,0x00,0x90,0x4c,0x50,0x83,0x30,0x80,0x45,0x40,0x00,0x80,0x4c,0x40,0x30,0x90,
0x45,0x50,0x00,0x90,0x4c,0x50,0x83,0x30,0x80,0x45,0x40,0x00,0x80,0x4c,0x40,0x30,
0x90,0x45,0x50,0x00,0x90,0x4e,0x50,0x83,0x30,0x80,0x4e,0x40,0x30,0x90,0x4a,0x50,
0x83,0x00,0x80,0x45,0x40,0x30,0x80,0x4a,0x40,0x30,0x90,0x45,0x50,0x00,0x90,0x4c,
0x50,0x83,0x30,0x80,0x45,0x40,0x00,0x80,0x4c,0x40,0x30,0x90,0x45,0x50,0x00,0x90,
0x4e,0x50,0x81,0x70,0x80,0x45,0x40,0x00,0x80,0x4e,0x40,0x00,0x90,0x4f,0x50,0x81,
0x58,0x80,0x4f,0x40,0x18,0x90,0x45,0x50,0x00,0x90,0x4e,0x50,0x83,0x30,0x80,0x4e,
0x40,0x30,0x90,0x4a,0x50,0x83,0x00,0x80,0x45,0x40,0x30,0x80,0x4a,0x40,0x30,0x90,
0x45,0x50,0x00,0x90,0x4c,0x50,0x83,0x30,0x80,0x45,0x40,0x30,0x80,0x4c,0x40,0x00,
0x90,0x4e,0x50,0x81,0x70,0x80,0x4e,0x40,0x00,0x90,0x4f,0x50,0x81,0x58,0x80,0x4f,
0x40,0x18,0x90,0x46,0x50,0x00,0x90,0x4e,0x50,0x83,0x60,0x80,0x4e,0x40,0x00,0x90,
0x4c,0x50,0x83,0x00,0x80,0x46,0x40,0x30,0x80,0x4c,0x40,0x30,0x90,0x4a,0x50,0x83,
0x30,0x80,0x4a,0x40,0x30,0x90,0x4c,0x50,0x83,0x30,0x80,0x4c,0x40,0x30,0x90,0x45,
0x50,0x83,0x30,0x80,0x45,0x40,0x30,0x90,0x4e,0x5a,0x00,0x90,0x4a,0x5a,0x00,0x90,
0x45,0x5a,0x83,0x30,0x80,0x45,0x40,0x83,0x60,0x80,0x4e,0x40,0x00,0x80,0x4a,0x40,
0x30,0x90,0x4e,0x50,0x00,0x90,0x4a,0x50,0x83,0x30,0x80,0x4e,0x40,0x00,0x80,0x4a,
0x40,0x30,0x90,0x4f,0x50,0x00,0x90,0x4a,0x50,0x83,0x30,0x80,0x4f,0x40,0x00,0x80,
0x4a,0x40,0x30,0x90,0x51,0x50,0x00,0x90,0x4a,0x50,0x83,0x30,0x80,0x51,0x40,0x00,
0x80,0x4a,0x40,0x30,0x90,0x51,0x50,0x00,0x90,0x4a,0x50,0x83,0x30,0x80,0x51,0x40,
0x00,0x80,0x4a,0x40,0x30,0x90,0x4f,0x50,0x00,0x90,0x4a,0x50,0x83,0x30,0x80,0x4f,
0x40,0x00,0x80,0x4a,0x40,0x30,0x90,0x4e,0x50,0x00,0x90,0x4a,0x50,0x83,0x60,0x80,
0x4e,0x40,0x00,0x80,0x4a,0x40,0x00,0x90,0x4c,0x50,0x83,0x30,0x80,0x4c,0x40,0x30,
0x90,0x4a,0x50,0x00,0x90,0x42,0x50,0x83,0x30,0x80,0x4a,0x40,0x00,0x80,0x42,0x40,
0x30,0x90,0x4a,0x50,0x00,0x90,0x42,0x50,0x83,0x30,0x80,0x4a,0x40,0x00,0x80,0x42,
0x40,0x30,0x90,0x4c,0x50,0x00,0x90,0x49,0x50,0x00,0x90,0x43,0x50,0x83,0x30,0x80,
0x4c,0x40,0x00,0x80,0x49,0x40,0x00,0x80,0x43,0x40,0x30,0x90,0x4e,0x50,0x00,0x90,
0x4a,0x50,0x00,0x90,0x45,0x50,0x83,0x30,0x80,0x4e,0x40,0x00,0x80,0x4a,0x40,0x00,
0x80,0x45,0x40,0x30,0x90,0x4c,0x50,0x00,0x90,0x49,0x50,0x00,0x90,0x43,0x50,0x85,
0x08,0x80,0x4c,0x40,0x00,0x80,0x49,0x40,0x00,0x80,0x43,0x40,0x48,0x90,0x42,0x50,
0x00,0x90,0x45,0x50,0x00,0x90,0x4a,0x50,0x81,0x58,0x80,0x42,0x40,0x00,0x80,0x45,
0x40,0x00,0x80,0x4a,0x40,0x18,0x90,0x42,0x50,0x00,0x90,0x45,0x50,0x00,0x90,0x4a,
0x50,0x86,0x60,0x80,0x42,0x40,0x00,0x80,0x45,0x40,0x00,0x80,0x4a,0x40,0x60,0x90,
0x45,0x50,0x00,0x90,0x4c,0x50,0x83,0x30,0x80,0x45,0x40,0x00,0x80,0x4c,0x40,0x30,
0x90,0x45,0x50,0x00,0x90,0x4c,0x50,0x83,0x30,0x80,0x45,0x40,0x00,0x80,0x4c,0x40,
0x30,0x90,0x45,0x50,0x00,0x90,0x4e,0x50,0x83,0x30,0x80,0x4e,0x40,0x30,0x90,0x4a,
0x50,0x83,0x00,0x80,0x45,0x40,0x30,0x80,0x4a,0x40,0x30,0x90,0x45,0x50,0x00,0x90,
0x4c,0x50,0x83,0x30,0x80,0x45,0x40,0x00,0x80,0x4c,0x40,0x30,0x90,0x45,0x50,0x00,
0x90,0x4e,0x50,0x81,0x70,0x80,0x45,0x40,0x00,0x80,0x4e,0x40,0x00,0x90,0x4f,0x50,
0x81,0x58,0x80,0x4f,0x40,0x18,0x90,0x45,0x50,0x00,0x90,0x4e,0x50,0x83,0x30,0x80,
0x4e,0x40,0x30,0x90,0x4a,0x50,0x83,0x00,0x80,0x45,0x40,0x30,0x80,0x4a,0x40,0x30,
0x90,0x45,0x50,0x00,0x90,0x4c,0x50,0x83,0x30,0x80,0x45,0x40,0x30,0x80,0x4c,0x40,
0x00,0x90,0x4e,0x50,0x81,0x70,0x80,0x4e,0x40,0x00,0x90,0x4f,0x50,0x81,0x58,0x80,
0x4f,0x40,0x18,0x90,0x46,0x50,0x00,0x90,0x4e,0x50,0x83,0x60,0x80,0x4e,0x40,0x00,
0x90,0x4c,0x50,0x83,0x00,0x80,0x46,0x40,0x30,0x80,0x4c,0x40,0x30,0x90,0x4a,0x50,
0x83,0x30,0x80,0x4a,0x40,0x30,0x90,0x4c,0x50,0x83,0x30,0x80,0x4c,0x40,0x30,0x90,
0x45,0x50,0x83,0x30,0x80,0x45,0x40,0x30,0x90,0x4e,0x5a,0x00,0x90,0x4a,0x5a,0x00,
0x90,0x45,0x5a,0x83,0x30,0x80,0x45,0x40,0x83,0x60,0x80,0x4e,0x40,0x00,0x80,0x4a,
0x40,0x30,0x90,0x4e,0x50,0x00,0x90,0x4a,0x50,0x83,0x30,0x80,0x4e,0x40,0x00,0x80,
0x4a,0x40,0x30,0x90,0x4f,0x50,0x00,0x90,0x4a,0x50,0x83,0x30,0x80,0x4f,0x40,0x00,
0x80,0x4a,0x40,0x30,0x90,0x51,0x50,0x00,0x90,0x4a,0x50,0x83,0x30,0x80,0x51,0x40,
0x00,0x80,0x4a,0x40,0x30,0x90,0x51,0x50,0x00,0x90,0x4a,0x50,0x83,0x30,0x80,0x51,
0x40,0x00,0x80,0x4a,0x40,0x30,0x90,0x4f,0x50,0x00,0x90,0x4a,0x50,0x83,0x30,0x80,
0x4f,0x40,0x00,0x80,0x4a,0x40,0x30,0x90,0x4e,0x50,0x00,0x90,0x4a,0x50,0x83,0x60,
0x80,0x4e,0x40,0x00,0x80,0x4a,0x40,0x00,0x90,0x4c,0x50,0x83,0x30,0x80,0x4c,0x40,
0x30,0x90,0x4a,0x50,0x00,0x90,0x42,0x50,0x83,0x30,0x80,0x4a,0x40,0x00,0x80,0x42,
0x40,0x30,0x90,0x4a,0x50,0x00,0x90,0x42,0x50,0x83,0x30,0x80,0x4a,0x40,0x00,0x80,
0x42,0x40,0x30,0x90,0x4c,0x50,0x00,0x90,0x49,0x50,0x00,0x90,0x43,0x50,0x83,0x30,
0x80,0x4c,0x40,0x00,0x80,0x49,0x40,0x00,0x80,0x43,0x40,0x30,0x90,0x4e,0x50,0x00,
0x90,0x4a,0x50,0x00,0x90,0x45,0x50,0x83,0x30,0x80,0x4e,0x40,0x00,0x80,0x4a,0x40,
0x00,0x80,0x45,0x40,0x30,0x90,0x4c,0x50,0x00,0x90,0x49,0x50,0x00,0x90,0x43,0x50,
0x85,0x08,0x80,0x4c,0x40,0x00,0x80,0x49,0x40,0x00,0x80,0x43,0x40,0x48,0x90,0x42,
0x50,0x00,0x90,0x45,0x50,0x00,0x90,0x4a,0x50,0x81,0x58,0x80,0x42,0x40,0x00,0x80,
0x45,0x40,0x00,0x80,0x4a,0x40,0x18,0x90,0x42,0x50,0x00,0x90,0x45,0x50,0x00,0x90,
0x4a,0x50,0x83,0x30,0x80,0x42,0x40,0x00,0x80,0x45,0x40,0x00,0x80,0x4a,0x40,0x30,
0x90,0x51,0x50,0x00,0x90,0x4e,0x50,0x00,0x90,0x45,0x50,0x83,0x30,0x80,0x51,0x40,
0x00,0x80,0x4e,0x40,0x00,0x80,0x45,0x40,0x30,0x90,0x4f,0x50,0x00,0x90,0x4c,0x50,
0x00,0x90,0x45,0x50,0x85,0x08,0x80,0x4f,0x40,0x00,0x80,0x4c,0x40,0x00,0x80,0x45,
0x40,0x48,0x90,0x4e,0x50,0x00,0x90,0x4a,0x50,0x00,0x90,0x45,0x50,0x81,0x58,0x80,
0x4e,0x40,0x00,0x80,0x4a,0x40,0x00,0x80,0x45,0x40,0x18,0x90,0x4e,0x50,0x00,0x90,
0x4a,0x50,0x00,0x90,0x45,0x50,0x83,0x30,0x80,0x4e,0x40,0x00,0x80,0x4a,0x40,0x00,
0x80,0x45,0x40,0x30,0x90,0x56,0x5f,0x00,0x90,0x53,0x5f,0x00,0x90,0x4a,0x5f,0x81,
0x70,0x80,0x56,0x40,0x00,0x80,0x53,0x40,0x00,0x80,0x4a,0x40,0x81,0x70,0x90,0x54,
0x50,0x00,0x90,0x51,0x50,0x00,0x90,0x4a,0x50,0x85,0x08,0x80,0x54,0x40,0x00,0x80,
0x51,0x40,0x00,0x80,0x4a,0x40,0x48,0x90,0x53,0x50,0x00,0x90,0x4f,0x50,0x00,0x90,
0x4a,0x50,0x81,0x58,0x80,0x53,0x40,0x00,0x80,0x4f,0x40,0x00,0x80,0x4a,0x40,0x18,
0x90,0x53,0x50,0x00,0x90,0x4f,0x50,0x00,0x90,0x4a,0x50,0x83,0x30,0x80,0x53,0x40,
0x00,0x80,0x4f,0x40,0x00,0x80,0x4a,0x40,0x30,0x90,0x4f,0x50,0x81,0x70,0x80,0x4f,
0x40,0x00,0x90,0x4c,0x50,0x81,0x58,0x80,0x4c,0x40,0x18,0x90,0x4a,0x50,0x81,0x70,
0x80,0x4a,0x40,0x00,0x90,0x49,0x50,0x81,0x70,0x80,0x49,0x40,0x00,0x90,0x4c,0x50,
0x81,0x70,0x80,0x4c,0x40,0x00,0x90,0x49,0x50,0x81,0x58,0x80,0x49,0x40,0x18,0x90,
0x47,0x50,0x81,0x70,0x80,0x47,0x40,0x00,0x90,0x45,0x50,0x81,0x70,0x80,0x45,0x40,
0x00,0x90,0x47,0x50,0x81,0x70,0x80,0x47,0x40,0x00,0x90,0x49,0x50,0x81,0x58,0x80,
0x49,0x40,0x18,0x90,0x4a,0x50,0x81,0x70,0x80,0x4a,0x40,0x00,0x90,0x4e,0x50,0x81,
0x70,0x80,0x4e,0x40,0x00,0x90,0x4c,0x50,0x81,0x70,0x80,0x4c,0x40,0x00,0x90,0x49,
0x50,0x81,0x58,0x80,0x49,0x40,0x18,0x90,0x4a,0x50,0x83,0x30,0x80,0x4a,0x40,0x83,
0x18,0x90,0x56,0x5a,0x00,0x90,0x51,0x5a,0x00,0x90,0x4e,0x5a,0x6c,0x80,0x56,0x40,
0x00,0x80,0x51,0x40,0x00,0x80,0x4e,0x40,0x0c,0x90,0x56,0x5a,0x00,0x90,0x51,0x5a,
0x00,0x90,0x4e,0x5a,0x83,0x30,0x80,0x56,0x40,0x00,0x80,0x51,0x40,0x00,0x80,0x4e,
0x40,0x83,0x18,0x90,0x36,0x5a,0x00,0x90,0x39,0x5a,0x00,0x90,0x3e,0x5a,0x6c,0x80,
0x36,0x40,0x00,0x80,0x39,0x40,0x00,0x80,0x3e,0x40,0x0c,0x90,0x36,0x5a,0x00,0x90,
0x39,0x5a,0x00,0x90,0x3e,0x5a,0x86,0x60,0x80,0x36,0x40,0x00,0x80,0x39,0x40,0x00,
0x80,0x3e,0x40,0x60,0xff,0x2f,0x00,0x4d,0x54,0x72,0x6b,0x00,0x00,0x0a,0xb6,0x00,
0xff,0x03,0x07,0x53,0x6f,0x75,0x6e,0x64,0x20,0x32,0x00,0xff,0x04,0x15,0x41,0x52,
0x49,0x41,0x20,0x50,0x6c,0x61,0x79,0x65,0x72,0x20,0x28,0x4d,0x75,0x6c,0x74,0x69,
0x29,0x20,0x31,0x00,0xff,0x59,0x02,0x02,0x00,0x00,0xb1,0x00,0x00,0x00,0xb1,0x20,
0x05,0x00,0xc1,0x00,0x00,0xb1,0x0a,0x40,0x00,0x91,0x32,0x3c,0x8a,0x10,0x81,0x32,
0x40,0x81,0x10,0x91,0x32,0x3c,0x83,0x30,0x81,0x32,0x40,0x30,0x91,0x2d,0x3c,0x86,
0x60,0x81,0x2d,0x40,0x60,0x91,0x37,0x3c,0x86,0x60,0x81,0x37,0x40,0x60,0x91,0x36,
0x3c,0x83,0x30,0x81,0x36,0x40,0x30,0x91,0x36,0x3c,0x83,0x30,0x81,0x36,0x40,0x30,
0x91,0x31,0x3c,0x83,0x30,0x81,0x31,0x40,0x30,0x91,0x32,0x3c,0x83,0x30,0x81,0x32,
0x40,0x30,0x91,0x2d,0x3c,0x00,0x91,0x32,0x3c,0x85,0x08,0x81,0x32,0x40,0x48,0x91,
0x31,0x3c,0x81,0x58,0x81,0x31,0x40,0x18,0x91,0x31,0x3c,0x86,0x00,0x81,0x2d,0x40,
0x60,0x81,0x31,0x40,0x60,0x91,0x32,0x3c,0x86,0x60,0x81,0x32,0x40,0x60,0x91,0x3c,
0x3c,0x86,0x60,0x81,0x3c,0x40,0x60,0x91,0x3b,0x3c,0x00,0x91,0x2f,0x3c,0x8a,0x10,
0x81,0x3b,0x40,0x00,0x81,0x2f,0x40,0x81,0x10,0x91,0x2e,0x3c,0x83,0x30,0x81,0x2e,
0x40,0x30,0x91,0x36,0x3c,0x00,0x91,0x2d,0x3c,0x83,0x30,0x81,0x36,0x40,0x00,0x81,
0x2d,0x40,0x30,0x91,0x36,0x3c,0x00,0x91,0x2d,0x3c,0x83,0x30,0x81,0x36,0x40,0x00,
0x81,0x2d,0x40,0x30,0x91,0x37,0x3c,0x00,0x91,0x2d,0x3c,0x83,0x30,0x81,0x37,0x40,
0x00,0x81,0x2d,0x40,0x30,0x91,0x39,0x3c,0x00,0x91,0x2d,0x3c,0x83,0x30,0x81,0x39,
0x40,0x00,0x81,0x2d,0x40,0x30,0x91,0x37,0x3c,0x00,0x91,0x2d,0x3c,0x85,0x08,0x81,
0x37,0x40,0x00,0x81,0x2d,0x40,0x48,0x91,0x36,0x3c,0x00,0x91,0x32,0x3c,0x81,0x58,
0x81,0x36,0x40,0x00,0x81,0x32,0x40,0x18,0x91,0x36,0x3c,0x00,0x91,0x32,0x3c,0x86,
0x60,0x81,0x36,0x40,0x00,0x81,0x32,0x40,0x60,0x91,0x3d,0x3c,0x83,0x30,0x81,0x3d,
0x40,0x30,0x91,0x39,0x3c,0x83,0x30,0x81,0x39,0x40,0x30,0x91,0x3e,0x3c,0x83,0x30,
0x81,0x3e,0x40,0x30,0x91,0x3b,0x3c,0x83,0x30,0x81,0x3b,0x40,0x30,0x91,0x3d,0x3c,
0x83,0x30,0x81,0x3d,0x40,0x30,0x91,0x39,0x3c,0x83,0x30,0x81,0x39,0x40,0x30,0x91,
0x3e,0x3c,0x83,0x30,0x81,0x3e,0x40,0x30,0x91,0x3b,0x3c,0x83,0x30,0x81,0x3b,0x40,
0x30,0x91,0x3d,0x3c,0x83,0x30,0x81,0x3d,0x40,0x30,0x91,0x39,0x3c,0x83,0x30,0x81,
0x39,0x40,0x30,0x91,0x36,0x3c,0x83,0x30,0x81,0x36,0x40,0x30,0x91,0x3a,0x3c,0x83,
0x30,0x81,0x3a,0x40,0x30,0x91,0x3b,0x3c,0x83,0x30,0x81,0x3b,0x40,0x30,0x91,0x34,
0x3c,0x83,0x30,0x81,0x34,0x40,0x30,0x91,0x39,0x3c,0x83,0x30,0x81,0x39,0x40,0x84,
0x10,0x91,0x3c,0x46,0x00,0x91,0x32,0x3c,0x86,0x60,0x81,0x32,0x40,0x60,0x91,0x34,
0x3c,0x83,0x30,0x81,0x34,0x40,0x30,0x91,0x36,0x3c,0x82,0x20,0x81,0x3c,0x40,0x81,
0x10,0x81,0x36,0x40,0x30,0x91,0x3b,0x3c,0x00,0x91,0x2f,0x3c,0x8a,0x10,0x81,0x3b,
0x40,0x00,0x81,0x2f,0x40,0x81,0x10,0x91,0x2e,0x3c,0x83,0x30,0x81,0x2e,0x40,0x30,
0x91,0x36,0x3c,0x00,0x91,0x2d,0x3c,0x83,0x30,0x81,0x36,0x40,0x00,0x81,0x2d,0x40,
0x30,0x91,0x36,0x3c,0x00,0x91,0x2d,0x3c,0x83,0x30,0x81,0x36,0x40,0x00,0x81,0x2d,
0x40,0x30,0x91,0x37,0x3c,0x00,0x91,0x2d,0x3c,0x83,0x30,0x81,0x37,0x40,0x00,0x81,
0x2d,0x40,0x30,0x91,0x39,0x3c,0x00,0x91,0x2d,0x3c,0x83,0x30,0x81,0x39,0x40,0x00,
0x81,0x2d,0x40,0x30,0x91,0x37,0x3c,0x00,0x91,0x2d,0x3c,0x85,0x08,0x81,0x37,0x40,
0x00,0x81,0x2d,0x40,0x48,0x91,0x36,0x3c,0x00,0x91,0x32,0x3c,0x81,0x58,0x81,0x36,
0x40,0x00,0x81,0x32,0x40,0x18,0x91,0x36,0x3c,0x00,0x91,0x32,0x3c,0x86,0x60,0x81,
0x36,0x40,0x00,0x81,0x32,0x40,0x60,0x91,0x3d,0x3c,0x83,0x30,0x81,0x3d,0x40,0x30,
0x91,0x39,0x3c,0x83,0x30,0x81,0x39,0x40,0x30,0x91,0x3e,0x3c,0x83,0x30,0x81,0x3e,
0x40,0x30,0x91,0x3b,0x3c,0x83,0x30,0x81,0x3b,0x40,0x30,0x91,0x3d,0x3c,0x83,0x30,
0x81,0x3d,0x40,0x30,0x91,0x39,0x3c,0x83,0x30,0x81,0x39,0x40,0x30,0x91,0x3e,0x3c,
0x83,0x30,0x81,0x3e,0x40,0x30,0x91,0x3b,0x3c,0x83,0x30,0x81,0x3b,0x40,0x30,0x91,
0x3d,0x3c,0x83,0x30,0x81,0x3d,0x40,0x30,0x91,0x39,0x3c,0x83,0x30,0x81,0x39,0x40,
0x30,0x91,0x36,0x3c,0x83,0x30,0x81,0x36,0x40,0x30,0x91,0x3a,0x3c,0x83,0x30,0x81,
0x3a,0x40,0x30,0x91,0x3b,0x3c,0x83,0x30,0x81,0x3b,0x40,0x30,0x91,0x34,0x3c,0x83,
0x30,0x81,0x34,0x40,0x30,0x91,0x39,0x3c,0x83,0x30,0x81,0x39,0x40,0x84,0x10,0x91,
0x3c,0x46,0x00,0x91,0x32,0x3c,0x86,0x60,0x81,0x32,0x40,0x60,0x91,0x34,0x3c,0x83,
0x30,0x81,0x34,0x40,0x30,0x91,0x36,0x3c,0x82,0x20,0x81,0x3c,0x40,0x81,0x10,0x81,
0x36,0x40,0x30,0x91,0x3b,0x3c,0x00,0x91,0x2f,0x3c,0x8a,0x10,0x81,0x3b,0x40,0x00,
0x81,0x2f,0x40,0x81,0x10,0x91,0x2e,0x3c,0x83,0x30,0x81,0x2e,0x40,0x30,0x91,0x36,
0x3c,0x00,0x91,0x2d,0x3c,0x83,0x30,0x81,0x36,0x40,0x00,0x81,0x2d,0x40,0x30,0x91,
0x36,0x3c,0x00,0x91,0x2d,0x3c,0x83,0x30,0x81,0x36,0x40,0x00,0x81,0x2d,0x40,0x30,
0x91,0x37,0x3c,0x00,0x91,0x2d,0x3c,0x83,0x30,0x81,0x37,0x40,0x00,0x81,0x2d,0x40,
0x30,0x91,0x39,0x3c,0x00,0x91,0x2d,0x3c,0x83,0x30,0x81,0x39,0x40,0x00,0x81,0x2d,
0x40,0x30,0x91,0x37,0x3c,0x00,0x91,0x2d,0x3c,0x85,0x08,0x81,0x37,0x40,0x00,0x81,
0x2d,0x40,0x48,0x91,0x36,0x46,0x00,0x91,0x32,0x46,0x81,0x58,0x81,0x36,0x40,0x00,
0x81,0x32,0x40,0x18,0x91,0x36,0x54,0x00,0x91,0x32,0x54,0x83,0x30,0x81,0x36,0x40,
0x00,0x81,0x32,0x40,0x82,0x20,0x91,0x32,0x6e,0x81,0x58,0x81,0x32,0x40,0x18,0x91,
0x32,0x50,0x85,0x08,0x81,0x32,0x40,0x48,0x91,0x32,0x50,0x81,0x58,0x81,0x32,0x40,
0x18,0x91,0x32,0x50,0x83,0x30,0x81,0x32,0x40,0x82,0x20,0x91,0x32,0x50,0x81,0x58,
0x81,0x32,0x40,0x18,0x91,0x3e,0x50,0x00,0x91,0x32,0x50,0x85,0x08,0x81,0x3e,0x40,
0x00,0x81,0x32,0x40,0x48,0x91,0x3e,0x50,0x00,0x91,0x32,0x50,0x81,0x58,0x81,0x3e,
0x40,0x00,0x81,0x32,0x40,0x18,0x91,0x3e,0x50,0x00,0x91,0x32,0x50,0x83,0x30,0x81,
0x3e,0x40,0x00,0x81,0x32,0x40,0x84,0x10,0x91,0x37,0x50,0x00,0x91,0x2d,0x50,0x85,
0x08,0x81,0x37,0x40,0x00,0x81,0x2d,0x40,0x48,0x91,0x37,0x50,0x00,0x91,0x2d,0x50,
0x81,0x58,0x81,0x37,0x40,0x00,0x81,0x2d,0x40,0x18,0x91,0x37,0x50,0x00,0x91,0x2d,
0x50,0x85,0x08,0x81,0x37,0x40,0x00,0x81,0x2d,0x40,0x48,0x91,0x37,0x50,0x00,0x91,
0x2d,0x50,0x81,0x58,0x81,0x37,0x40,0x00,0x81,0x2d,0x40,0x18,0x91,0x36,0x50,0x00,
0x91,0x32,0x50,0x83,0x30,0x81,0x36,0x40,0x00,0x81,0x32,0x40,0x30,0x91,0x37,0x50,
0x00,0x91,0x2d,0x50,0x83,0x30,0x81,0x37,0x40,0x00,0x81,0x2d,0x40,0x30,0x91,0x36,
0x3c,0x00,0x91,0x32,0x3c,0x83,0x30,0x81,0x36,0x40,0x00,0x81,0x32,0x40,0x84,0x10,
0x91,0x26,0x64,0x00,0x91,0x32,0x64,0x85,0x08,0x81,0x26,0x40,0x00,0x81,0x32,0x40,
0x48,0x91,0x3e,0x64,0x00,0x91,0x39,0x64,0x00,0x91,0x32,0x64,0x81,0x58,0x81,0x3e,
0x40,0x00,0x81,0x39,0x40,0x00,0x81,0x32,0x40,0x18,0x91,0x3e,0x64,0x00,0x91,0x39,
0x64,0x00,0x91,0x32,0x64,0x85,0x08,0x81,0x3e,0x40,0x00,0x81,0x39,0x40,0x00,0x81,
0x32,0x40,0x48,0x91,0x3e,0x64,0x00,0x91,0x39,0x64,0x00,0x91,0x32,0x64,0x81,0x58,
0x81,0x3e,0x40,0x00,0x81,0x39,0x40,0x00,0x81,0x32,0x40,0x18,0x91,0x39,0x64,0x00,
0x91,0x2d,0x64,0x85,0x08,0x81,0x39,0x40,0x00,0x81,0x2d,0x40,0x48,0x91,0x39,0x64,
0x00,0x91,0x2d,0x64,0x81,0x58,0x81,0x39,0x40,0x00,0x81,0x2d,0x40,0x18,0x91,0x39,
0x64,0x00,0x91,0x2d,0x64,0x85,0x08,0x81,0x39,0x40,0x00,0x81,0x2d,0x40,0x48,0x91,
0x39,0x64,0x00,0x91,0x2d,0x64,0x81,0x58,0x81,0x39,0x40,0x00,0x81,0x2d,0x40,0x18,
0x91,0x36,0x64,0x00,0x91,0x2a,0x64,0x83,0x30,0x81,0x36,0x40,0x00,0x81,0x2a,0x40,
0x30,0x91,0x36,0x64,0x00,0x91,0x2a,0x64,0x83,0x30,0x81,0x36,0x40,0x00,0x81,0x2a,
0x40,0x30,0x91,0x34,0x64,0x00,0x91,0x28,0x64,0x83,0x30,0x81,0x34,0x40,0x00,0x81,
0x28,0x40,0x30,0x91,0x26,0x64,0x00,0x91,0x32,0x64,0x83,0x30,0x81,0x26,0x40,0x00,
0x81,0x32,0x40,0x30,0x91,0x39,0x64,0x00,0x91,0x2d,0x64,0x85,0x08,0x81,0x39,0x40,
0x00,0x81,0x2d,0x40,0x48,0x91,0x39,0x64,0x00,0x91,0x2d,0x64,0x81,0x58,0x81,0x39,
0x40,0x00,0x81,0x2d,0x40,0x18,0x91,0x39,0x64,0x00,0x91,0x2d,0x64,0x85,0x08,0x81,
0x39,0x40,0x00,0x81,0x2d,0x40,0x48,0x91,0x39,0x64,0x00,0x91,0x2d,0x64,0x81,0x58,
0x81,0x39,0x40,0x00,0x81,0x2d,0x40,0x18,0x91,0x3e,0x64,0x00,0x91,0x32,0x64,0x85,
0x08,0x81,0x3e,0x40,0x00,0x81,0x32,0x40,0x48,0x91,0x3e,0x64,0x81,0x58,0x81,0x3e,
0x40,0x18,0x91,0x3e,0x64,0x00,0x91,0x3c,0x64,0x85,0x08,0x81,0x3e,0x40,0x00,0x81,
0x3c,0x40,0x48,0x91,0x3e,0x64,0x00,0x91,0x3c,0x64,0x81,0x58,0x81,0x3e,0x40,0x00,
0x81,0x3c,0x40,0x18,0x91,0x3e,0x64,0x00,0x91,0x3b,0x64,0x85,0x08,0x81,0x3e,0x40,
0x00,0x81,0x3b,0x40,0x48,0x91,0x3e,0x64,0x00,0x91,0x3b,0x64,0x81,0x58,0x81,0x3e,
0x40,0x00,0x81,0x3b,0x40,0x18,0x91,0x3e,0x64,0x00,0x91,0x3a,0x64,0x86,0x60,0x81,
0x3e,0x40,0x00,0x81,0x3a,0x40,0x60,0x91,0x39,0x64,0x00,0x91,0x2d,0x64,0x83,0x30,
0x81,0x39,0x40,0x00,0x81,0x2d,0x40,0x30,0x91,0x39,0x64,0x00,0x91,0x2d,0x64,0x83,
0x30,0x81,0x39,0x40,0x00,0x81,0x2d,0x40,0x30,0x91,0x39,0x64,0x00,0x91,0x2d,0x64,
0x83,0x30,0x81,0x39,0x40,0x00,0x81,0x2d,0x40,0x30,0x91,0x39,0x64,0x00,0x91,0x2d,
0x64,0x83,0x30,0x81,0x39,0x40,0x00,0x81,0x2d,0x40,0x30,0x91,0x39,0x64,0x00,0x91,
0x2d,0x64,0x85,0x08,0x81,0x39,0x40,0x00,0x81,0x2d,0x40,0x48,0x91,0x32,0x64,0x81,
0x58,0x81,0x32,0x40,0x18,0x91,0x32,0x64,0x86,0x60,0x81,0x32,0x40,0x60,0x91,0x3d,
0x50,0x83,0x30,0x81,0x3d,0x40,0x30,0x91,0x39,0x50,0x83,0x30,0x81,0x39,0x40,0x30,
0x91,0x3e,0x50,0x83,0x30,0x81,0x3e,0x40,0x30,0x91,0x3b,0x50,0x83,0x30,0x81,0x3b,
0x40,0x30,0x91,0x3d,0x50,0x83,0x30,0x81,0x3d,0x40,0x30,0x91,0x39,0x50,0x83,0x30,
0x81,0x39,0x40,0x30,0x91,0x3e,0x50,0x83,0x30,0x81,0x3e,0x40,0x30,0x91,0x3b,0x50,
0x83,0x30,0x81,0x3b,0x40,0x30,0x91,0x3d,0x50,0x83,0x30,0x81,0x3d,0x40,0x30,0x91,
0x39,0x50,0x83,0x30,0x81,0x39,0x40,0x30,0x91,0x36,0x50,0x83,0x30,0x81,0x36,0x40,
0x30,0x91,0x3a,0x50,0x83,0x30,0x81,0x3a,0x40,0x30,0x91,0x3b,0x50,0x83,0x30,0x81,
0x3b,0x40,0x30,0x91,0x38,0x50,0x00,0x91,0x34,0x50,0x83,0x30,0x81,0x38,0x40,0x00,
0x81,0x34,0x40,0x30,0x91,0x3d,0x50,0x00,0x91,0x39,0x50,0x83,0x30,0x81,0x3d,0x40,
0x00,0x81,0x39,0x40,0x84,0x10,0x91,0x3e,0x5a,0x00,0x91,0x32,0x5a,0x85,0x08,0x81,
0x3e,0x40,0x00,0x81,0x32,0x40,0x48,0x91,0x3e,0x50,0x81,0x58,0x81,0x3e,0x40,0x18,
0x91,0x3e,0x50,0x00,0x91,0x3c,0x50,0x83,0x30,0x81,0x3e,0x40,0x00,0x81,0x3c,0x40,
0x30,0x91,0x3e,0x50,0x00,0x91,0x3c,0x50,0x81,0x58,0x81,0x3e,0x40,0x00,0x81,0x3c,
0x40,0x82,0x08,0x91,0x3e,0x50,0x00,0x91,0x3b,0x50,0x85,0x08,0x81,0x3e,0x40,0x00,
0x81,0x3b,0x40,0x48,0x91,0x3e,0x50,0x00,0x91,0x3b,0x50,0x81,0x58,0x81,0x3e,0x40,
0x00,0x81,0x3b,0x40,0x18,0x91,0x3e,0x50,0x00,0x91,0x3a,0x50,0x86,0x60,0x81,0x3e,
0x40,0x00,0x81,0x3a,0x40,0x60,0x91,0x39,0x50,0x00,0x91,0x2d,0x50,0x83,0x30,0x81,
0x39,0x40,0x00,0x81,0x2d,0x40,0x30,0x91,0x39,0x50,0x00,0x91,0x2d,0x50,0x83,0x30,
0x81,0x39,0x40,0x00,0x81,0x2d,0x40,0x30,0x91,0x39,0x50,0x00,0x91,0x2d,0x50,0x83,
0x30,0x81,0x39,0x40,0x00,0x81,0x2d,0x40,0x30,0x91,0x39,0x50,0x00,0x91,0x2d,0x50,
0x83,0x30,0x81,0x39,0x40,0x00,0x81,0x2d,0x40,0x30,0x91,0x39,0x50,0x00,0x91,0x2d,
0x50,0x85,0x08,0x81,0x39,0x40,0x00,0x81,0x2d,0x40,0x48,0x91,0x32,0x50,0x81,0x58,
0x81,0x32,0x40,0x18,0x91,0x32,0x50,0x86,0x60,0x81,0x32,0x40,0x60,0x91,0x3d,0x50,
0x83,0x30,0x81,0x3d,0x40,0x30,0x91,0x39,0x50,0x83,0x30,0x81,0x39,0x40,0x30,0x91,
0x3e,0x50,0x83,0x30,0x81,0x3e,0x40,0x30,0x91,0x3b,0x50,0x83,0x30,0x81,0x3b,0x40,
0x30,0x91,0x3d,0x50,0x83,0x30,0x81,0x3d,0x40,0x30,0x91,0x39,0x50,0x83,0x30,0x81,
0x39,0x40,0x30,0x91,0x3e,0x50,0x83,0x30,0x81,0x3e,0x40,0x30,0x91,0x3b,0x50,0x83,
0x30,0x81,0x3b,0x40,0x30,0x91,0x3d,0x50,0x83,0x30,0x81,0x3d,0x40,0x30,0x91,0x39,
0x50,0x83,0x30,0x81,0x39,0x40,0x30,0x91,0x36,0x50,0x83,0x30,0x81,0x36,0x40,0x30,
0x91,0x3a,0x50,0x83,0x30,0x81,0x3a,0x40,0x30,0x91,0x3b,0x50,0x83,0x30,0x81,0x3b,
0x40,0x30,0x91,0x38,0x50,0x00,0x91,0x34,0x50,0x83,0x30,0x81,0x38,0x40,0x00,0x81,
0x34,0x40,0x30,0x91,0x3d,0x50,0x00,0x91,0x39,0x50,0x83,0x30,0x81,0x3d,0x40,0x00,
0x81,0x39,0x40,0x84,0x10,0x91,0x3e,0x5a,0x00,0x91,0x32,0x5a,0x85,0x08,0x81,0x3e,
0x40,0x00,0x81,0x32,0x40,0x48,0x91,0x3e,0x50,0x81,0x58,0x81,0x3e,0x40,0x18,0x91,
0x3e,0x50,0x00,0x91,0x3c,0x50,0x83,0x30,0x81,0x3e,0x40,0x00,0x81,0x3c,0x40,0x30,
0x91,0x3e,0x50,0x00,0x91,0x3c,0x50,0x81,0x58,0x81,0x3e,0x40,0x00,0x81,0x3c,0x40,
0x82,0x08,0x91,0x3e,0x50,0x00,0x91,0x3b,0x50,0x85,0x08,0x81,0x3e,0x40,0x00,0x81,
0x3b,0x40,0x48,0x91,0x3e,0x50,0x00,0x91,0x3b,0x50,0x81,0x58,0x81,0x3e,0x40,0x00,
0x81,0x3b,0x40,0x18,0x91,0x3e,0x50,0x00,0x91,0x3a,0x50,0x86,0x60,0x81,0x3e,0x40,
0x00,0x81,0x3a,0x40,0x60,0x91,0x39,0x50,0x00,0x91,0x2d,0x50,0x83,0x30,0x81,0x39,
0x40,0x00,0x81,0x2d,0x40,0x30,0x91,0x39,0x50,0x00,0x91,0x2d,0x50,0x83,0x30,0x81,
0x39,0x40,0x00,0x81,0x2d,0x40,0x30,0x91,0x39,0x50,0x00,0x91,0x2d,0x50,0x83,0x30,
0x81,0x39,0x40,0x00,0x81,0x2d,0x40,0x30,0x91,0x39,0x50,0x00,0x91,0x2d,0x50,0x83,
0x30,0x81,0x39,0x40,0x00,0x81,0x2d,0x40,0x30,0x91,0x39,0x50,0x00,0x91,0x2d,0x50,
0x85,0x08,0x81,0x39,0x40,0x00,0x81,0x2d,0x40,0x48,0x91,0x32,0x50,0x81,0x58,0x81,
0x32,0x40,0x18,0x91,0x32,0x50,0x83,0x30,0x81,0x32,0x40,0x82,0x20,0x91,0x3e,0x50,
0x00,0x91,0x32,0x50,0x81,0x58,0x81,0x3e,0x40,0x00,0x81,0x32,0x40,0x18,0x91,0x3e,
0x50,0x00,0x91,0x32,0x50,0x85,0x08,0x81,0x3e,0x40,0x00,0x81,0x32,0x40,0x48,0x91,
0x3e,0x50,0x00,0x91,0x32,0x50,0x81,0x58,0x81,0x3e,0x40,0x00,0x81,0x32,0x40,0x18,
0x91,0x3e,0x50,0x00,0x91,0x32,0x50,0x83,0x30,0x81,0x3e,0x40,0x00,0x81,0x32,0x40,
0x82,0x20,0x91,0x3e,0x50,0x00,0x91,0x32,0x50,0x81,0x58,0x81,0x3e,0x40,0x00,0x81,
0x32,0x40,0x18,0x91,0x3e,0x50,0x00,0x91,0x32,0x50,0x85,0x08,0x81,0x3e,0x40,0x00,
0x81,0x32,0x40,0x48,0x91,0x3e,0x50,0x00,0x91,0x32,0x50,0x81,0x58,0x81,0x3e,0x40,
0x00,0x81,0x32,0x40,0x18,0x91,0x3e,0x50,0x00,0x91,0x32,0x50,0x83,0x30,0x81,0x3e,
0x40,0x00,0x81,0x32,0x40,0x84,0x10,0x91,0x37,0x50,0x00,0x91,0x2d,0x50,0x85,0x08,
0x81,0x37,0x40,0x00,0x81,0x2d,0x40,0x48,0x91,0x37,0x50,0x00,0x91,0x2d,0x50,0x81,
0x58,0x81,0x37,0x40,0x00,0x81,0x2d,0x40,0x18,0x91,0x37,0x50,0x00,0x91,0x2d,0x50,
0x85,0x08,0x81,0x37,0x40,0x00,0x81,0x2d,0x40,0x48,0x91,0x37,0x50,0x00,0x91,0x2d,
0x50,0x81,0x58,0x81,0x37,0x40,0x00,0x81,0x2d,0x40,0x18,0x91,0x36,0x50,0x00,0x91,
0x32,0x50,0x83,0x30,0x81,0x36,0x40,0x00,0x81,0x32,0x40,0x30,0x91,0x37,0x50,0x00,
0x91,0x2d,0x50,0x83,0x30,0x81,0x37,0x40,0x00,0x81,0x2d,0x40,0x30,0x91,0x36,0x50,
0x00,0x91,0x32,0x50,0x83,0x30,0x81,0x36,0x40,0x00,0x81,0x32,0x40,0x83,0x18,0x91,
0x3e,0x5a,0x6c,0x81,0x3e,0x40,0x0c,0x91,0x3e,0x5a,0x83,0x30,0x81,0x3e,0x40,0x83,
0x18,0x91,0x26,0x5a,0x00,0x91,0x32,0x5a,0x6c,0x81,0x26,0x40,0x00,0x81,0x32,0x40,
0x0c,0x91,0x26,0x5a,0x00,0x91,0x32,0x5a,0x86,0x60,0x81,0x26,0x40,0x00,0x81,0x32,
0x40,0x60,0xff,0x2f,0x00,};
